<svg xmlns="http://www.w3.org/2000/svg" width="1042" height="1006" viewBox="0 0 1042 1006">
<g>
<path d="M 0.00 0.00 L 1042.00 0.00 L 1042.00 1006.00 L 0.00 1006.00 ZM 328.45 906.07 C328.97,906.58 334.85,907.00 341.50,907.00 C348.15,907.00 354.03,906.58 354.55,906.07 C355.07,905.56 359.33,904.92 364.00,904.64 C374.23,904.04 380.80,903.17 383.50,902.07 C384.60,901.62 386.76,900.74 388.30,900.12 C389.84,899.51 392.31,899.00 393.80,899.00 C395.28,899.00 398.30,898.13 400.50,897.06 C402.70,895.99 407.20,894.13 410.50,892.91 C431.73,885.11 454.13,871.00 472.31,853.96 C481.53,845.32 500.00,824.48 500.00,822.71 C500.00,822.15 501.21,820.10 502.69,818.17 C504.16,816.23 506.50,812.36 507.87,809.57 C509.24,806.78 510.96,804.14 511.68,803.70 C512.41,803.26 513.00,802.22 513.00,801.39 C513.00,799.38 516.98,789.92 518.67,787.92 C519.40,787.05 520.00,785.46 520.00,784.37 C520.00,783.29 520.39,781.97 520.86,781.45 C521.34,780.93 522.19,778.70 522.77,776.50 C523.35,774.30 524.94,768.22 526.31,763.00 C527.68,757.78 529.10,751.37 529.46,748.77 C529.82,746.17 530.48,743.82 530.93,743.55 C532.55,742.54 533.29,731.82 533.89,700.51 L 534.50 668.52 L 558.21 692.26 C573.21,707.27 582.65,716.00 583.90,716.00 C584.99,716.00 586.16,716.45 586.50,717.00 C587.49,718.61 593.48,718.16 598.17,716.12 C602.84,714.09 605.59,711.50 608.89,706.00 C611.29,702.00 611.77,693.03 609.80,688.86 C608.00,685.03 524.02,601.50 520.10,599.63 C516.14,597.74 512.11,597.58 506.50,599.09 C503.11,600.01 496.06,606.59 460.18,642.33 C436.90,665.53 416.99,686.17 415.93,688.21 C413.63,692.62 413.40,700.32 415.41,705.14 C417.02,708.99 424.15,716.00 426.46,716.00 C427.31,716.00 428.00,716.45 428.00,717.00 C428.00,717.55 430.48,718.00 433.50,718.00 C436.52,718.00 439.00,717.66 439.00,717.24 C439.00,716.83 440.37,715.88 442.05,715.14 C443.73,714.39 455.63,703.21 468.49,690.29 C481.45,677.26 492.34,667.09 492.93,667.46 C494.58,668.48 494.40,724.70 492.75,725.26 C491.88,725.55 491.55,727.96 491.67,733.26 C491.81,739.30 491.53,740.97 490.30,741.44 C489.11,741.89 488.89,742.93 489.37,745.88 C489.95,749.55 487.52,759.73 484.98,764.24 C484.44,765.19 484.00,766.45 484.00,767.03 C484.00,767.62 483.10,769.96 482.00,772.24 C480.90,774.51 480.00,776.97 480.00,777.69 C480.00,778.41 479.28,779.00 478.39,779.00 C477.35,779.00 477.00,779.55 477.38,780.55 C477.97,782.08 473.64,791.48 471.83,792.61 C471.31,792.93 470.45,794.32 469.93,795.69 C469.40,797.07 468.07,798.43 466.96,798.72 C465.53,799.10 465.12,799.79 465.54,801.12 C465.90,802.25 465.65,803.00 464.93,803.00 C463.29,803.00 460.00,806.95 460.00,808.92 C460.00,810.94 442.54,828.20 434.50,834.13 C428.83,838.31 426.37,839.96 416.26,846.34 C405.71,853.00 387.40,859.72 369.00,863.68 C359.70,865.68 325.63,865.94 316.50,864.08 C307.78,862.30 292.53,858.08 287.50,856.05 C280.23,853.11 267.00,846.13 259.04,841.03 C246.80,833.18 239.65,826.93 226.49,812.60 C224.12,810.03 219.00,803.16 219.00,802.56 C219.00,802.21 218.17,801.03 217.16,799.94 C216.15,798.86 214.69,796.74 213.91,795.23 C213.14,793.73 212.27,792.28 211.98,792.00 C211.37,791.42 203.25,774.72 201.76,771.00 C201.22,769.62 200.37,767.72 199.88,766.76 C199.40,765.81 199.00,763.67 199.00,762.01 C199.00,760.36 198.55,759.00 198.00,759.00 C197.45,759.00 197.00,757.45 197.00,755.56 C197.00,753.67 196.55,751.84 196.00,751.50 C195.45,751.16 195.00,749.42 195.00,747.64 C195.00,745.86 194.57,743.97 194.04,743.44 C193.52,742.92 193.00,739.21 192.90,735.21 C192.80,731.22 192.33,727.70 191.86,727.41 C190.64,726.66 190.77,702.26 192.00,701.50 C192.55,701.16 193.00,697.45 193.00,693.26 C193.00,689.07 193.49,684.04 194.09,682.07 C194.69,680.11 195.53,677.15 195.96,675.50 C197.79,668.39 199.41,663.43 200.17,662.55 C200.63,662.03 201.00,660.98 201.00,660.23 C201.00,658.70 208.84,642.44 212.27,636.87 C223.29,618.95 239.13,601.92 255.14,590.77 C265.01,583.89 277.64,577.00 280.36,577.00 C281.20,577.00 282.16,576.54 282.51,575.98 C283.40,574.54 289.64,572.06 295.50,570.82 C298.25,570.24 301.05,569.32 301.72,568.78 C302.40,568.24 304.65,567.80 306.72,567.81 C308.80,567.81 311.01,567.39 311.63,566.88 C312.25,566.37 315.18,565.69 318.13,565.37 C321.08,565.04 410.12,564.49 516.00,564.14 C693.20,563.55 708.86,563.37 713.00,561.81 C715.47,560.88 720.20,559.88 723.49,559.59 C726.79,559.29 729.64,558.59 729.83,558.02 C730.02,557.45 730.56,557.23 731.04,557.53 C732.20,558.24 745.00,554.81 745.00,553.79 C745.00,553.36 745.87,553.00 746.94,553.00 C748.01,553.00 749.16,552.55 749.50,552.00 C749.84,551.45 751.04,551.00 752.16,551.00 C753.95,551.00 758.94,548.84 765.50,545.23 C766.60,544.62 768.85,543.49 770.50,542.70 C776.23,539.99 784.80,535.21 788.14,532.87 C799.87,524.68 807.47,518.54 815.70,510.66 C820.84,505.72 825.65,501.19 826.38,500.59 C828.90,498.53 848.00,471.98 848.00,470.54 C848.00,470.22 849.22,468.06 850.72,465.73 C853.93,460.73 858.00,452.99 858.00,451.88 C858.00,451.44 859.29,448.26 860.87,444.79 C862.45,441.33 864.76,435.12 866.00,431.00 C867.24,426.88 868.92,421.70 869.73,419.50 C871.16,415.65 872.03,411.40 874.04,398.50 C875.77,387.39 876.35,363.20 875.10,354.12 C872.69,336.64 871.72,331.37 869.88,325.93 C868.85,322.87 868.00,319.47 868.00,318.37 C868.00,317.27 867.10,314.51 866.00,312.24 C864.90,309.96 864.00,307.62 864.00,307.03 C864.00,306.45 863.61,305.19 863.13,304.24 C860.23,298.45 858.00,292.68 858.00,290.97 C858.00,289.89 857.63,289.00 857.17,289.00 C856.71,289.00 854.97,286.41 853.31,283.25 C849.55,276.10 843.98,266.98 840.77,262.73 C839.44,260.95 837.71,258.04 836.93,256.25 C836.15,254.46 835.11,253.00 834.61,253.00 C833.67,253.00 828.00,247.41 828.00,246.47 C828.00,245.34 823.39,239.41 820.00,236.18 C815.87,232.23 811.00,228.61 811.00,229.48 C811.00,229.81 809.89,228.98 808.52,227.61 C807.16,226.25 804.35,223.87 802.27,222.32 C800.20,220.78 798.28,219.25 798.00,218.93 C794.83,215.25 771.31,201.85 759.25,196.86 C757.46,196.12 756.00,194.94 756.00,194.24 C756.00,193.48 754.89,193.03 753.25,193.12 C751.74,193.20 749.15,192.69 747.50,191.97 C745.85,191.25 741.58,189.81 738.00,188.76 C722.73,184.28 714.26,183.21 684.13,181.96 C661.67,181.03 658.56,181.09 657.05,182.45 C656.08,183.33 653.53,184.00 651.16,184.00 C648.86,184.00 646.19,184.40 645.24,184.89 C644.28,185.38 641.03,186.33 638.00,186.99 C631.76,188.34 621.36,191.62 618.76,193.05 C617.81,193.57 616.57,194.00 616.00,194.00 C615.44,194.00 612.85,194.95 610.24,196.10 C593.99,203.32 582.69,209.81 569.50,219.48 C561.41,225.41 530.00,256.08 530.00,258.05 C530.00,258.63 528.28,261.67 526.17,264.80 C519.51,274.70 508.00,296.39 508.00,299.04 C508.00,299.58 507.57,300.81 507.05,301.76 C506.52,302.72 505.14,306.42 503.98,310.00 C502.82,313.58 501.51,317.40 501.07,318.50 C500.63,319.60 499.73,322.74 499.08,325.48 C498.42,328.21 497.38,330.76 496.76,331.15 C496.14,331.53 495.59,334.68 495.54,338.17 C495.48,341.65 495.03,345.15 494.54,345.94 C494.05,346.74 493.74,363.01 493.85,382.11 C493.99,405.00 493.71,417.06 493.04,417.48 C492.47,417.83 484.41,410.55 475.13,401.31 C453.75,380.02 447.13,373.79 444.35,372.34 C440.61,370.39 436.15,369.79 430.87,370.52 C426.78,371.08 424.97,372.02 421.42,375.42 C418.82,377.91 416.77,380.91 416.40,382.75 C416.06,384.47 415.15,386.11 414.39,386.40 C412.53,387.12 412.61,391.91 414.50,392.64 C415.33,392.95 416.00,393.95 416.00,394.86 C416.01,395.76 416.86,397.85 417.89,399.50 C420.89,404.27 501.35,484.67 505.40,486.95 C510.83,489.99 517.52,489.70 523.05,486.16 C528.84,482.48 607.93,403.03 610.34,398.49 C613.35,392.82 613.52,388.09 610.90,382.46 C607.96,376.14 603.92,372.33 598.68,370.92 C593.87,369.62 585.61,370.46 582.59,372.56 C581.44,373.36 570.00,384.47 557.17,397.26 L 533.85 420.50 L 534.17 383.30 C534.42,355.23 534.81,345.79 535.75,344.85 C536.44,344.16 537.00,341.92 537.00,339.86 C537.00,337.80 537.45,335.84 538.00,335.50 C538.55,335.16 539.00,332.97 539.00,330.64 C539.00,328.31 539.36,325.97 539.80,325.45 C540.24,324.93 541.44,322.02 542.47,319.00 C544.95,311.74 553.04,295.77 557.42,289.50 C559.34,286.75 562.13,282.70 563.62,280.50 C569.90,271.22 591.70,251.55 603.78,244.25 C615.62,237.10 641.45,226.00 646.27,226.00 C647.55,226.00 649.03,225.59 649.55,225.08 C650.07,224.58 653.42,223.86 657.00,223.49 C666.02,222.56 703.52,222.44 709.00,223.34 C716.95,224.63 724.44,226.19 726.50,226.97 C727.60,227.38 730.30,228.27 732.50,228.93 C737.68,230.50 752.20,237.24 760.11,241.75 C766.83,245.58 768.35,246.50 769.92,247.68 C784.14,258.30 795.61,268.63 800.49,275.20 C809.75,287.64 812.27,291.32 815.40,297.00 C827.83,319.52 831.19,330.53 834.72,360.17 C836.13,372.08 836.17,375.37 835.03,385.67 C834.30,392.18 833.33,397.93 832.86,398.45 C832.39,398.97 832.00,401.09 832.00,403.15 C832.00,405.22 831.60,407.94 831.10,409.20 C830.61,410.47 829.66,413.52 828.99,416.00 C826.39,425.57 821.72,436.06 814.07,449.50 C806.72,462.42 787.28,485.15 781.52,487.56 C777.88,489.08 773.75,492.53 774.18,493.67 C774.36,494.13 772.96,495.00 771.08,495.61 C769.19,496.22 766.89,497.65 765.96,498.80 C764.27,500.88 759.95,503.61 752.50,507.28 C750.30,508.36 747.61,509.71 746.52,510.28 C740.02,513.65 730.84,516.77 728.91,516.26 C727.55,515.91 726.28,516.26 725.60,517.18 C724.17,519.12 719.64,520.28 714.00,520.14 C711.51,520.08 709.05,520.59 708.50,521.27 C707.71,522.24 667.24,522.50 519.21,522.50 C369.43,522.50 330.77,522.76 330.15,523.75 C329.60,524.65 326.57,524.93 319.52,524.75 C312.66,524.58 309.55,524.86 309.28,525.68 C309.02,526.43 307.64,526.65 305.46,526.30 C302.85,525.88 301.88,526.14 301.40,527.40 C300.92,528.65 300.00,528.90 297.54,528.44 C295.45,528.05 293.81,528.31 292.90,529.19 C292.13,529.94 286.77,532.10 281.00,534.01 C275.23,535.91 268.94,538.21 267.04,539.12 C265.14,540.03 262.94,540.53 262.15,540.23 C261.36,539.92 260.19,540.39 259.55,541.26 C258.91,542.13 254.61,544.87 249.98,547.33 C223.43,561.50 197.33,585.97 180.64,612.39 C170.25,628.81 161.48,648.74 157.92,664.00 C157.21,667.03 156.27,669.93 155.82,670.45 C155.37,670.97 155.00,673.31 155.00,675.64 C155.00,677.97 154.62,680.12 154.15,680.41 C150.80,682.48 150.79,746.52 154.14,748.58 C154.61,748.88 155.00,750.52 155.00,752.24 C155.00,753.95 155.42,756.74 155.93,758.43 C156.44,760.12 157.41,763.53 158.07,766.00 C160.87,776.48 163.63,784.30 166.86,790.84 C168.04,793.23 169.00,795.78 169.00,796.51 C169.00,797.24 169.34,797.98 169.75,798.17 C170.16,798.35 172.07,801.76 174.00,805.73 C175.93,809.71 177.84,812.97 178.25,812.98 C178.66,812.99 179.00,813.49 179.00,814.09 C179.00,815.05 186.59,826.70 188.07,828.00 C188.38,828.28 190.06,830.60 191.80,833.16 C193.54,835.72 199.25,842.07 204.49,847.26 C209.72,852.45 214.00,857.02 214.00,857.42 C214.00,858.75 216.84,861.00 218.53,861.00 C219.45,861.00 221.40,862.24 222.88,863.75 C224.35,865.26 226.28,866.95 227.15,867.50 C228.03,868.05 231.48,870.41 234.82,872.75 C238.16,875.09 241.33,877.00 241.86,877.00 C242.40,877.00 242.98,877.34 243.17,877.75 C243.64,878.81 248.06,881.30 258.75,886.54 C263.84,889.03 268.00,891.50 268.00,892.03 C268.00,892.56 269.10,893.00 270.44,893.00 C271.78,893.00 273.16,893.45 273.50,894.00 C273.84,894.55 275.64,895.00 277.50,895.00 C279.36,895.00 281.16,895.45 281.50,896.00 C281.84,896.55 282.98,897.00 284.03,897.00 C285.08,897.00 287.54,897.90 289.50,899.00 C291.46,900.10 294.53,901.00 296.33,901.00 C298.13,901.00 300.03,901.40 300.55,901.90 C301.77,903.05 308.25,904.01 319.00,904.64 C323.67,904.92 327.93,905.56 328.45,906.07 Z" fill="rgb(0,0,0)"/>
<path d="M 737.36 514.25 C734.47,515.39 731.04,516.81 729.50,517.50 C727.85,518.24 724.92,519.06 723.00,519.33 C721.08,519.60 717.70,520.35 715.50,521.00 C713.30,521.66 708.35,522.57 704.50,523.03 C700.65,523.50 616.50,523.95 517.50,524.04 C418.50,524.14 333.00,524.59 327.50,525.06 C317.09,525.94 308.83,527.14 300.75,528.94 C298.14,529.52 294.09,530.39 291.75,530.86 C289.86,531.24 287.57,531.85 285.12,532.58 C289.13,531.12 292.32,529.75 292.90,529.19 C293.81,528.31 295.45,528.05 297.54,528.44 C300.00,528.90 300.92,528.65 301.40,527.40 C301.88,526.14 302.85,525.88 305.46,526.30 C307.64,526.65 309.02,526.43 309.28,525.68 C309.55,524.86 312.66,524.58 319.52,524.75 C326.57,524.93 329.60,524.65 330.15,523.75 C330.77,522.76 369.43,522.50 519.21,522.50 C667.24,522.50 707.71,522.24 708.50,521.27 C709.05,520.59 711.51,520.08 714.00,520.14 C719.64,520.28 724.17,519.12 725.60,517.18 C726.28,516.26 727.55,515.91 728.91,516.26 C730.00,516.55 733.42,515.67 737.36,514.25 ZM 328.45 906.07 C327.93,905.56 323.67,904.92 319.00,904.64 C308.25,904.01 301.77,903.05 300.55,901.90 C300.03,901.40 298.13,901.00 296.33,901.00 C294.53,901.00 291.46,900.10 289.50,899.00 C289.29,898.88 289.08,898.77 288.86,898.66 C289.70,898.95 290.83,899.22 291.99,899.39 L 300.01 900.61 C302.21,900.94 304.26,901.61 304.57,902.11 C304.87,902.60 307.45,903.01 310.31,903.02 C313.16,903.02 316.17,903.48 317.00,904.03 C317.94,904.65 327.64,904.86 343.00,904.59 C368.47,904.14 377.84,903.45 379.45,901.91 C379.97,901.41 381.74,901.00 383.38,901.00 C384.49,901.00 385.83,900.83 387.39,900.49 C386.00,901.05 384.40,901.70 383.50,902.07 C380.80,903.17 374.23,904.04 364.00,904.64 C359.33,904.92 355.07,905.56 354.55,906.07 C354.03,906.58 348.15,907.00 341.50,907.00 C334.85,907.00 328.97,906.58 328.45,906.07 ZM 847.78 273.48 C844.70,268.42 841.36,263.55 837.40,258.31 C831.42,250.39 811.33,229.68 803.63,223.37 C805.45,224.81 807.44,226.53 808.52,227.61 C809.89,228.98 811.00,229.81 811.00,229.48 C811.00,228.61 815.87,232.23 820.00,236.18 C823.39,239.41 828.00,245.34 828.00,246.47 C828.00,247.41 833.67,253.00 834.61,253.00 C835.11,253.00 836.15,254.46 836.93,256.25 C837.71,258.04 839.44,260.95 840.77,262.73 C842.60,265.15 845.19,269.16 847.78,273.48 ZM 691.36 563.16 C692.03,563.12 692.41,563.08 692.50,563.04 C693.60,562.49 699.00,561.88 704.50,561.66 C710.00,561.45 716.41,560.76 718.75,560.14 C725.76,558.26 731.32,556.91 734.50,556.31 C736.15,556.00 737.95,555.41 738.50,555.00 C739.05,554.59 741.63,553.94 744.23,553.57 C744.58,553.52 744.92,553.46 745.26,553.40 C745.09,553.51 745.00,553.65 745.00,553.79 C745.00,554.81 732.20,558.24 731.04,557.53 C730.56,557.23 730.02,557.45 729.83,558.02 C729.64,558.59 726.79,559.29 723.49,559.59 C720.20,559.88 715.47,560.88 713.00,561.81 C711.29,562.45 707.61,562.86 691.36,563.16 ZM 499.35 324.35 C498.57,327.75 498.00,331.43 498.00,333.58 C498.00,335.53 497.51,338.05 496.91,339.16 C495.03,342.68 494.08,358.54 493.98,388.23 C493.97,392.80 493.92,397.04 493.86,400.79 C493.90,395.70 493.90,389.47 493.85,382.11 C493.74,363.01 494.05,346.74 494.54,345.94 C495.03,345.15 495.48,341.65 495.54,338.17 C495.59,334.68 496.14,331.53 496.76,331.15 C497.38,330.76 498.42,328.21 499.08,325.48 C499.17,325.11 499.26,324.73 499.35,324.35 ZM 199.31 764.90 C198.62,763.37 197.95,761.95 197.36,760.81 C196.59,759.33 196.04,757.76 196.14,757.31 C196.24,756.87 195.81,755.27 195.19,753.76 C193.34,749.29 192.21,740.49 191.81,727.37 C191.83,727.39 191.84,727.40 191.86,727.41 C192.33,727.70 192.80,731.22 192.90,735.21 C193.00,739.21 193.52,742.92 194.04,743.44 C194.57,743.97 195.00,745.86 195.00,747.64 C195.00,749.42 195.45,751.16 196.00,751.50 C196.55,751.84 197.00,753.67 197.00,755.56 C197.00,757.45 197.45,759.00 198.00,759.00 C198.55,759.00 199.00,760.36 199.00,762.01 C199.00,762.92 199.12,763.98 199.31,764.90 ZM 703.52 182.95 C697.79,182.65 691.29,182.53 683.50,182.53 C671.06,182.52 661.94,182.75 655.58,183.26 C656.21,183.03 656.72,182.75 657.05,182.45 C658.56,181.09 661.67,181.03 684.13,181.96 C691.86,182.28 698.16,182.59 703.52,182.95 ZM 493.18 723.70 C492.93,731.25 492.60,737.21 492.23,739.50 C491.69,742.80 490.25,748.65 489.03,752.50 C488.82,753.16 488.61,753.83 488.40,754.49 C489.22,751.01 489.65,747.67 489.37,745.88 C488.89,742.93 489.11,741.89 490.30,741.44 C491.53,740.97 491.81,739.30 491.67,733.26 C491.55,727.96 491.88,725.55 492.75,725.26 C492.91,725.20 493.05,724.65 493.18,723.70 ZM 757.51 504.70 C761.95,502.29 764.70,500.36 765.96,498.80 C766.89,497.65 769.19,496.22 771.08,495.61 C772.96,495.00 774.36,494.13 774.18,493.67 C773.75,492.53 777.88,489.08 781.52,487.56 C782.25,487.25 783.19,486.63 784.30,485.74 C779.83,490.10 776.02,493.46 774.30,494.35 C772.54,495.26 770.74,496.57 770.30,497.26 C769.67,498.25 766.71,500.00 757.51,504.70 ZM 417.57 380.10 C416.42,382.56 416.01,385.46 416.01,389.50 C416.01,394.63 416.51,397.30 417.89,399.50 C416.86,397.85 416.01,395.76 416.00,394.86 C416.00,393.95 415.33,392.95 414.50,392.64 C412.61,391.91 412.53,387.12 414.39,386.40 C415.15,386.11 416.06,384.47 416.40,382.75 C416.55,382.02 416.96,381.10 417.57,380.10 ZM 272.42 536.99 C267.23,539.03 263.12,541.00 262.52,541.97 C262.17,542.54 261.03,543.00 259.99,543.00 C256.98,543.00 242.51,551.16 230.54,559.61 C222.67,565.16 211.05,575.64 201.77,585.15 C216.07,569.77 232.93,556.43 249.98,547.33 C254.61,544.87 258.91,542.13 259.55,541.26 C260.19,540.39 261.36,539.92 262.15,540.23 C262.94,540.53 265.14,540.03 267.04,539.12 C267.98,538.67 269.96,537.89 272.42,536.99 ZM 546.31 240.65 C541.52,245.65 536.99,250.74 535.21,253.16 C532.93,256.28 530.04,259.94 528.78,261.30 C525.86,264.46 517.38,279.12 512.20,289.25 C516.16,281.41 522.08,270.89 526.17,264.80 C528.28,261.67 530.00,258.63 530.00,258.05 C530.00,257.08 537.62,249.15 546.31,240.65 ZM 529.88 746.44 C530.57,742.42 531.00,739.07 531.00,737.12 C531.00,734.53 531.56,731.84 532.25,731.15 C532.66,730.74 532.97,728.88 533.23,724.98 C532.72,737.79 532.02,742.87 530.93,743.55 C530.62,743.73 530.22,744.89 529.88,746.44 ZM 279.67 895.20 C279.02,895.08 278.27,895.00 277.50,895.00 C275.64,895.00 273.84,894.55 273.50,894.00 C273.16,893.45 271.78,893.00 270.44,893.00 C269.10,893.00 268.00,892.56 268.00,892.03 C268.00,891.50 263.84,889.03 258.75,886.54 C253.62,884.02 249.93,882.14 247.43,880.75 C249.82,881.97 253.66,883.92 257.50,885.87 C263.00,888.67 268.26,890.97 269.19,890.98 C270.12,890.99 271.16,891.45 271.50,892.00 C271.84,892.55 272.79,893.00 273.61,893.00 C274.43,893.00 276.96,893.90 279.24,895.00 C279.38,895.07 279.52,895.14 279.67,895.20 ZM 469.88 795.81 C469.05,798.68 464.05,805.20 457.71,812.24 C459.14,810.57 460.00,809.37 460.00,808.92 C460.00,806.95 463.29,803.00 464.93,803.00 C465.65,803.00 465.90,802.25 465.54,801.12 C465.12,799.79 465.53,799.10 466.96,798.72 C468.04,798.44 469.33,797.15 469.88,795.81 ZM 427.38 716.20 C428.69,716.37 430.38,716.40 432.91,716.42 C436.93,716.45 439.08,716.34 440.81,715.75 C439.75,716.34 439.00,716.94 439.00,717.24 C439.00,717.66 436.52,718.00 433.50,718.00 C430.48,718.00 428.00,717.55 428.00,717.00 C428.00,716.67 427.76,716.38 427.38,716.20 ZM 535.07 347.92 C535.30,343.16 535.55,340.23 535.80,339.50 C536.39,337.85 537.41,334.48 538.05,332.00 C538.38,330.76 538.76,329.40 539.13,328.22 C539.05,328.97 539.00,329.81 539.00,330.64 C539.00,332.97 538.55,335.16 538.00,335.50 C537.45,335.84 537.00,337.80 537.00,339.86 C537.00,341.92 536.44,344.16 535.75,344.85 C535.48,345.12 535.26,346.06 535.07,347.92 ZM 303.89 568.05 C306.44,567.18 310.47,566.09 314.00,565.36 C315.29,565.10 354.02,564.80 410.24,564.58 C356.63,564.86 320.01,565.16 318.13,565.37 C315.18,565.69 312.25,566.37 311.63,566.88 C311.01,567.39 308.80,567.81 306.72,567.81 C305.76,567.80 304.76,567.90 303.89,568.05 ZM 221.77 862.73 C220.53,861.72 219.23,861.00 218.53,861.00 C216.84,861.00 214.00,858.75 214.00,857.42 C214.00,857.08 210.93,853.75 206.81,849.58 C209.97,852.66 212.89,855.31 214.80,856.74 C216.75,858.19 219.80,860.82 221.77,862.73 ZM 192.00 701.50 C191.95,701.53 191.91,701.59 191.86,701.69 C192.07,695.31 192.41,690.20 192.78,688.50 C193.01,687.43 193.25,686.38 193.48,685.35 C193.19,687.68 193.00,690.63 193.00,693.26 C193.00,697.45 192.55,701.16 192.00,701.50 ZM 762.11 198.10 C761.17,197.68 760.30,197.31 759.50,197.00 C758.40,196.56 755.92,195.51 753.98,194.67 C751.87,193.74 750.17,193.01 748.65,192.39 C750.19,192.88 752.06,193.19 753.25,193.12 C754.89,193.03 756.00,193.48 756.00,194.24 C756.00,194.94 757.46,196.12 759.25,196.86 C760.15,197.23 761.10,197.65 762.11,198.10 ZM 392.23 899.13 C393.26,898.79 394.35,898.41 395.50,897.98 C396.60,897.56 399.52,896.63 402.00,895.91 C403.44,895.48 404.93,895.01 406.44,894.49 C404.13,895.42 401.87,896.40 400.50,897.06 C398.30,898.13 395.28,899.00 393.80,899.00 C393.35,899.00 392.81,899.05 392.23,899.13 ZM 508.69 807.99 C510.00,805.35 510.95,803.08 510.97,802.25 C510.99,801.56 511.37,801.00 511.82,801.00 C512.22,801.00 513.41,798.89 514.59,796.16 C513.67,798.47 513.00,800.56 513.00,801.39 C513.00,802.22 512.41,803.26 511.68,803.70 C511.10,804.06 509.86,805.85 508.69,807.99 ZM 479.90 778.15 C479.55,779.28 478.38,781.66 477.00,784.00 C476.55,784.76 476.13,785.51 475.75,786.20 C476.86,783.70 477.65,781.26 477.38,780.55 C477.00,779.55 477.35,779.00 478.39,779.00 C479.08,779.00 479.66,778.65 479.90,778.15 ZM 784.30 485.74 C789.49,480.67 795.56,474.24 800.28,468.79 C794.40,475.96 788.28,482.55 784.30,485.74 ZM 442.07 371.35 C440.16,370.89 437.40,370.61 434.37,370.60 C432.09,370.59 430.47,370.63 429.18,370.80 C429.70,370.69 430.26,370.60 430.87,370.52 C435.12,369.93 438.83,370.21 442.07,371.35 ZM 416.87 890.40 C426.04,886.40 435.83,881.16 445.06,875.29 C435.85,881.29 426.30,886.42 416.87,890.40 ZM 471.66 687.12 C482.72,676.02 489.14,669.96 491.75,668.17 C488.84,670.44 481.02,677.81 471.66,687.12 ZM 814.07 449.50 C812.64,452.00 810.76,454.88 808.62,457.90 C811.45,453.69 814.09,449.42 816.48,445.17 C821.89,435.29 825.58,427.02 827.97,419.45 C825.44,427.46 821.49,436.28 816.48,445.17 C815.71,446.58 814.91,448.02 814.07,449.50 ZM 195.07 678.73 C195.70,676.22 196.34,673.82 197.00,671.50 C197.63,669.30 198.39,666.48 198.69,665.24 C198.99,663.99 199.64,662.73 200.12,662.43 C200.28,662.33 200.42,662.17 200.55,661.96 C200.44,662.19 200.31,662.39 200.17,662.55 C199.41,663.43 197.79,668.39 195.96,675.50 C195.74,676.34 195.42,677.51 195.07,678.73 ZM 287.58 898.05 C286.15,897.43 284.75,897.00 284.03,897.00 C282.98,897.00 281.84,896.55 281.50,896.00 C281.50,895.99 281.49,895.99 281.49,895.98 C283.05,896.59 284.48,897.00 285.13,897.00 C286.09,897.00 287.13,897.40 287.43,897.89 C287.47,897.95 287.52,898.00 287.58,898.05 ZM 280.10 852.69 C273.29,849.55 266.29,845.67 259.04,841.03 C264.73,844.68 273.12,849.29 280.10,852.69 ZM 183.20 608.46 C178.24,616.16 173.92,623.69 170.26,631.02 C173.40,624.61 176.92,618.27 180.64,612.39 C181.47,611.07 182.32,609.76 183.20,608.46 ZM 400.48 854.13 C394.90,856.43 388.91,858.45 382.00,860.46 C377.13,861.88 373.19,862.90 369.28,863.62 C380.27,861.24 391.21,857.87 400.48,854.13 ZM 800.28 468.79 C803.22,465.19 806.10,461.44 808.62,457.90 C807.81,459.10 806.99,460.29 806.15,461.48 C804.75,463.45 802.69,465.99 800.28,468.79 ZM 365.39 864.24 C360.15,864.95 354.47,865.22 346.33,865.28 C353.65,865.15 360.66,864.80 365.39,864.24 ZM 592.99 204.49 C586.20,208.16 579.98,212.04 573.46,216.63 C570.81,218.54 568.21,220.53 565.64,222.62 C567.20,221.27 568.52,220.19 569.50,219.48 C570.84,218.50 572.16,217.55 573.46,216.63 C579.54,212.25 585.94,208.29 592.99,204.49 C598.25,201.65 603.87,198.93 610.24,196.10 C604.01,198.87 598.31,201.63 592.99,204.49 ZM 486.57 760.68 C486.44,761.14 486.34,761.51 486.28,761.76 C486.00,763.01 485.36,764.27 484.88,764.57 C484.84,764.60 484.79,764.63 484.75,764.67 C484.82,764.52 484.90,764.38 484.98,764.24 C485.52,763.27 486.06,762.04 486.57,760.68 ZM 451.95 818.38 C447.53,822.92 442.89,827.30 438.77,830.69 C442.89,827.18 447.85,822.51 451.95,818.38 ZM 798.00 218.93 C795.83,216.41 783.10,208.77 772.01,202.96 C783.35,208.87 795.76,216.33 798.00,218.93 ZM 648.26 184.18 C647.13,184.42 646.21,184.67 645.50,184.96 C644.78,185.24 643.08,185.73 641.14,186.22 C643.02,185.72 644.61,185.21 645.24,184.89 C645.80,184.61 646.95,184.35 648.26,184.18 ZM 492.99 417.49 C492.97,417.51 492.96,417.52 492.95,417.53 C492.43,417.85 484.41,410.55 475.13,401.31 C484.20,410.34 492.10,417.49 492.99,417.49 ZM 301.54 860.41 C305.69,861.55 310.03,862.65 313.70,863.48 C310.11,862.76 306.29,861.77 301.54,860.41 ZM 426.18 839.98 C423.00,842.16 419.95,844.12 416.95,845.90 C421.07,843.30 423.88,841.51 426.18,839.98 ZM 520.76 781.57 C520.82,781.45 520.87,781.34 520.93,781.24 C521.47,780.22 522.13,778.45 522.85,776.19 L 522.77 776.50 C522.19,778.70 521.34,780.93 520.86,781.45 C520.83,781.49 520.80,781.53 520.76,781.57 ZM 474.10 789.51 C474.04,789.69 474.00,789.82 474.00,789.89 C474.00,790.33 473.10,791.50 472.00,792.50 C471.69,792.78 471.40,793.07 471.14,793.35 C471.39,792.99 471.63,792.73 471.83,792.61 C472.41,792.25 473.25,791.04 474.10,789.51 ZM 747.07 553.00 C748.38,552.65 749.34,552.26 749.54,551.94 C749.86,551.42 751.04,551.00 752.16,551.00 C751.04,551.00 749.84,551.45 749.50,552.00 C749.17,552.53 748.10,552.96 747.07,553.00 ZM 541.05 322.83 C541.54,321.51 542.10,319.95 542.62,318.50 C543.38,316.35 544.67,313.37 546.20,310.12 C544.59,313.56 543.25,316.71 542.47,319.00 C542.01,320.37 541.50,321.72 541.05,322.83 ZM 757.51 504.70 C756.03,505.50 754.36,506.36 752.50,507.28 C750.90,508.07 749.05,508.99 747.74,509.66 C749.29,508.87 751.31,507.84 753.00,506.99 C754.65,506.16 756.15,505.40 757.51,504.70 ZM 527.78 757.05 C528.40,754.18 528.98,751.34 529.47,748.71 L 529.46 748.77 C529.23,750.42 528.58,753.61 527.78,757.05 ZM 533.85 420.46 L 533.81 420.50 L 533.95 408.39 ZM 242.84 877.36 C242.58,877.14 242.21,877.00 241.86,877.00 C241.33,877.00 238.16,875.09 234.82,872.75 C231.48,870.41 228.03,868.05 227.15,867.50 C226.54,867.12 225.43,866.18 224.31,865.14 C225.53,866.24 226.62,867.16 227.16,867.50 C228.03,868.05 231.48,870.41 234.82,872.75 C238.16,875.09 241.36,877.00 241.95,877.00 C242.32,877.00 242.66,877.14 242.84,877.36 ZM 738.00 188.76 C733.16,187.34 728.74,186.22 724.26,185.34 C728.78,186.20 733.03,187.30 738.00,188.76 ZM 205.71 649.31 C207.99,644.61 210.58,639.61 212.27,636.87 C210.64,639.51 208.02,644.57 205.71,649.31 ZM 504.41 815.65 C505.43,814.04 506.52,812.13 507.52,810.26 C506.64,811.97 505.49,813.96 504.41,815.65 ZM 417.35 708.27 C416.48,707.14 415.79,706.05 415.41,705.14 C415.76,705.97 416.46,707.09 417.35,708.27 ZM 517.87 789.11 C518.18,788.57 518.45,788.16 518.65,787.92 C518.83,787.71 519.00,787.47 519.15,787.21 C519.00,787.48 518.84,787.72 518.67,787.92 C518.44,788.19 518.17,788.60 517.87,789.11 ZM 493.06 667.66 C493.15,667.77 493.23,668.15 493.31,668.79 C493.23,668.27 493.15,667.88 493.06,667.66 ZM 425.60 715.79 C425.79,715.86 426.00,715.92 426.21,715.98 C426.03,715.94 425.82,715.88 425.60,715.79 Z" fill="rgb(76,76,75)"/>
<path d="M 691.36 563.16 C668.31,563.59 619.95,563.79 516.00,564.14 C477.39,564.27 441.02,564.42 410.24,564.58 C360.91,564.77 325.06,565.02 316.13,565.26 C318.78,564.87 321.75,564.51 324.00,564.34 C327.58,564.06 330.93,563.42 331.45,562.92 C332.02,562.37 407.55,562.00 520.64,562.00 C637.41,562.00 709.10,561.64 709.46,561.06 C709.78,560.54 712.25,560.13 714.94,560.15 C716.49,560.16 718.43,560.01 720.16,559.76 C719.70,559.89 719.23,560.01 718.75,560.14 C716.41,560.76 710.00,561.45 704.50,561.66 C699.00,561.88 693.60,562.49 692.50,563.04 C692.41,563.08 692.03,563.12 691.36,563.16 ZM 658.61 223.35 C658.88,223.13 659.00,222.84 659.00,222.46 C659.00,221.15 660.27,221.02 667.84,221.60 C675.49,222.17 676.77,222.04 677.31,220.63 C678.22,218.27 689.78,218.27 690.69,220.64 C691.24,222.06 692.55,222.19 700.66,221.62 C708.64,221.06 710.00,221.18 710.00,222.48 C710.00,222.97 710.24,223.36 710.69,223.62 C710.13,223.52 709.57,223.43 709.00,223.34 C703.81,222.49 669.80,222.55 658.61,223.35 ZM 493.20 417.12 C493.14,417.57 493.09,417.86 493.03,417.95 C492.31,419.11 491.73,419.05 489.50,417.59 C485.74,415.13 458.00,386.92 458.00,385.56 C458.00,384.37 450.30,376.76 445.91,373.36 C449.46,376.01 456.98,383.23 475.13,401.31 C484.41,410.55 492.43,417.85 492.95,417.53 C492.96,417.52 492.97,417.51 492.99,417.49 C493.01,417.49 493.02,417.49 493.04,417.48 C493.09,417.44 493.15,417.32 493.20,417.12 ZM 866.00 431.00 C864.76,435.12 862.45,441.33 860.87,444.79 C862.45,441.33 864.75,435.12 865.98,431.00 C867.21,426.88 868.60,422.52 869.06,421.32 C869.52,420.12 869.64,417.53 869.32,415.57 C868.84,412.62 869.04,412.00 870.48,412.00 C872.02,412.00 872.15,411.33 871.54,406.50 C870.99,402.07 871.15,400.88 872.37,400.41 C873.64,399.93 873.78,398.16 873.29,389.42 C872.76,380.16 872.88,379.00 874.35,379.00 C874.97,379.00 875.37,378.76 875.62,377.96 C875.37,385.74 874.82,393.47 874.04,398.50 C872.03,411.40 871.16,415.65 869.73,419.50 C868.92,421.70 867.24,426.88 866.00,431.00 ZM 875.76 366.63 C875.53,365.35 875.11,365.00 874.35,365.00 C872.88,365.00 872.77,363.83 873.37,354.00 C873.96,344.18 873.86,343.00 872.39,343.00 C871.00,343.00 870.84,342.25 871.39,338.11 C871.90,334.30 871.72,333.10 870.56,332.66 C869.56,332.28 869.11,330.71 869.15,327.80 C869.17,325.92 869.08,324.20 868.89,322.71 C869.18,323.75 869.52,324.86 869.88,325.93 C871.72,331.37 872.69,336.64 875.10,354.12 C875.50,357.04 875.71,361.52 875.76,366.63 ZM 365.39 864.24 C366.12,864.15 366.80,864.06 367.42,863.97 C363.99,864.63 361.15,865.00 359.25,865.00 C357.46,865.00 356.00,865.45 356.00,866.00 C356.00,866.62 350.69,867.00 342.06,867.00 C333.84,867.00 327.86,866.59 327.50,866.00 C327.16,865.45 325.59,865.00 324.02,865.00 C322.40,865.00 320.19,864.75 317.43,864.25 C323.02,865.16 335.05,865.48 346.33,865.28 C354.47,865.22 360.15,864.95 365.39,864.24 ZM 567.21 701.16 C574.75,708.48 580.21,713.43 580.66,713.28 C581.30,713.07 582.11,713.37 582.47,713.95 C582.85,714.56 586.97,715.00 592.37,715.00 C597.66,715.00 599.98,714.95 601.53,714.34 C600.51,715.01 599.41,715.58 598.17,716.12 C593.48,718.16 587.49,718.61 586.50,717.00 C586.16,716.45 584.99,716.00 583.90,716.00 C582.92,716.00 576.94,710.67 567.21,701.16 ZM 535.07 347.92 C534.60,352.62 534.35,363.17 534.17,383.30 L 533.95 408.39 L 533.95 408.39 L 533.94 409.77 L 533.80 386.44 C533.78,383.80 533.77,381.34 533.76,379.05 C533.59,352.40 533.57,348.39 534.51,344.63 C534.75,343.64 535.07,342.66 535.46,341.30 C535.49,341.21 535.51,341.11 535.54,341.02 C535.38,342.46 535.22,344.80 535.07,347.92 ZM 829.31 329.06 C829.94,331.23 830.54,333.45 831.10,335.75 C831.80,338.64 832.74,341.00 833.19,341.00 C833.64,341.00 834.00,343.39 834.00,346.30 C834.00,349.21 834.50,352.10 835.12,352.72 C835.79,353.39 835.90,360.77 835.67,369.67 C835.50,367.07 835.18,364.08 834.72,360.17 C833.15,347.00 831.62,337.51 829.31,329.06 ZM 155.82 670.45 C156.18,670.03 156.86,668.07 157.49,665.74 C157.17,667.55 157.00,669.17 157.00,670.55 C157.00,672.45 156.55,674.00 156.00,674.00 C155.45,674.00 155.00,676.22 155.00,678.94 C155.00,681.66 154.55,684.16 154.00,684.50 C153.45,684.84 153.00,689.11 153.00,694.00 C153.00,698.89 152.55,703.16 152.00,703.50 C151.91,703.55 151.83,703.70 151.75,703.93 C152.04,691.55 152.84,681.22 154.15,680.41 C154.62,680.12 155.00,677.97 155.00,675.64 C155.00,673.31 155.37,670.97 155.82,670.45 ZM 738.00 188.76 C741.58,189.81 745.85,191.25 747.50,191.97 C747.85,192.12 748.24,192.26 748.65,192.39 C749.49,192.73 750.38,193.11 751.37,193.53 C749.02,192.65 746.38,192.00 745.01,192.00 C743.35,192.00 742.00,191.59 742.00,191.10 C742.00,189.76 736.24,188.00 731.85,188.00 C729.73,188.00 728.00,187.55 728.00,187.00 C728.00,186.45 725.84,186.00 723.20,186.00 C720.56,186.00 717.97,185.61 717.45,185.14 C716.67,184.44 712.90,183.79 707.70,183.25 C714.32,183.78 719.44,184.42 724.26,185.34 C728.74,186.22 733.16,187.34 738.00,188.76 ZM 154.14 748.58 C152.86,747.80 152.08,738.04 151.77,726.13 C151.84,726.33 151.92,726.45 152.00,726.50 C152.55,726.84 153.00,731.14 153.00,736.06 C153.00,741.35 153.41,745.00 154.00,745.00 C154.55,745.00 155.00,747.33 155.00,750.18 C155.00,753.03 155.42,756.74 155.93,758.43 C156.44,760.12 157.41,763.53 158.08,766.00 C160.77,775.93 163.79,784.28 165.35,786.10 C166.26,787.16 167.00,789.12 167.00,790.45 C167.00,790.72 167.02,790.98 167.05,791.24 C166.99,791.11 166.92,790.98 166.86,790.84 C163.63,784.30 160.87,776.48 158.07,766.00 C157.41,763.53 156.44,760.12 155.93,758.43 C155.42,756.74 155.00,753.95 155.00,752.24 C155.00,750.52 154.61,748.88 154.14,748.58 ZM 805.41 519.87 C814.62,512.03 826.03,500.86 825.43,499.89 C824.84,498.93 829.36,494.00 830.82,494.00 C831.43,494.00 835.76,488.52 839.91,482.85 C834.38,490.64 827.79,499.44 826.38,500.59 C825.65,501.19 820.84,505.72 815.70,510.66 C812.27,513.94 808.96,516.92 805.41,519.87 ZM 466.07 859.55 C476.73,849.74 491.94,834.01 491.46,832.77 C491.19,832.06 491.97,831.04 493.19,830.49 C494.45,829.93 495.76,828.11 496.23,826.25 C496.69,824.46 497.61,822.98 498.28,822.96 C498.91,822.94 500.21,821.55 501.74,819.47 C500.73,820.95 500.00,822.28 500.00,822.71 C500.00,824.48 481.53,845.32 472.31,853.96 C470.28,855.86 468.20,857.73 466.07,859.55 ZM 648.26 184.18 C649.19,184.07 650.21,184.00 651.16,184.00 C652.72,184.00 654.37,183.71 655.58,183.26 C658.18,183.05 661.23,182.89 664.79,182.77 C664.65,182.84 664.55,182.92 664.50,183.00 C664.16,183.55 661.01,184.00 657.50,184.00 C653.99,184.00 650.84,184.45 650.50,185.00 C650.16,185.55 647.82,186.00 645.31,186.00 C643.71,186.00 641.90,186.18 640.17,186.47 C640.50,186.39 640.83,186.31 641.14,186.22 C643.08,185.73 644.78,185.24 645.50,184.96 C646.21,184.67 647.13,184.42 648.26,184.18 ZM 427.38 716.20 C427.12,716.07 426.80,716.00 426.46,716.00 C426.38,716.00 426.30,715.99 426.21,715.98 C426.00,715.92 425.79,715.86 425.60,715.79 C424.34,715.26 422.50,713.81 420.71,712.05 C424.47,715.47 424.61,715.50 433.26,715.36 C438.43,715.28 441.55,714.91 443.47,714.12 C442.79,714.68 442.31,715.03 442.05,715.14 C441.61,715.33 441.19,715.54 440.81,715.75 C439.08,716.34 436.93,716.45 432.91,716.42 C430.38,716.40 428.69,716.37 427.38,716.20 ZM 195.79 838.05 C196.51,838.79 197.06,839.23 197.27,839.17 C198.38,838.88 206.99,847.73 207.05,849.22 C207.06,849.54 207.54,850.21 208.32,851.04 C207.83,850.57 207.32,850.08 206.81,849.58 C206.07,848.83 205.29,848.05 204.49,847.26 C201.46,844.25 198.27,840.87 195.79,838.05 ZM 530.77 740.42 C530.94,738.24 531.00,736.07 531.00,733.50 C531.00,727.45 531.41,724.73 532.48,723.66 C532.86,723.28 533.15,722.55 533.38,721.07 C533.33,722.44 533.28,723.75 533.23,724.98 C532.97,728.88 532.66,730.74 532.25,731.15 C531.56,731.84 531.00,734.53 531.00,737.12 C531.00,737.97 530.92,739.09 530.77,740.42 ZM 742.02 232.75 C743.48,233.29 745.04,233.54 745.91,233.31 C747.28,232.95 748.00,233.24 748.00,234.15 C748.00,235.74 755.66,239.54 758.25,239.23 C759.21,239.12 760.01,239.58 760.01,240.26 C760.02,240.80 761.54,242.23 763.23,243.53 C762.33,243.02 761.30,242.43 760.11,241.75 C755.32,239.02 748.11,235.47 742.02,232.75 ZM 834.96 386.30 C834.39,395.51 833.62,403.00 832.89,403.00 C832.40,403.00 832.00,403.88 832.00,404.95 C832.00,406.03 831.60,407.94 831.10,409.20 C831.60,407.94 832.00,405.22 832.00,403.15 C832.00,401.09 832.39,398.97 832.86,398.45 C833.31,397.94 834.24,392.54 834.96,386.30 ZM 859.29 295.58 C857.84,292.46 856.84,291.03 856.18,291.02 C855.45,291.01 855.02,290.21 855.21,289.25 C855.43,288.20 854.49,285.65 852.76,282.22 C852.95,282.57 853.13,282.91 853.31,283.25 C854.97,286.41 856.71,289.00 857.17,289.00 C857.63,289.00 858.00,289.89 858.00,290.97 C858.00,291.77 858.48,293.44 859.29,295.58 ZM 303.89 568.05 C302.90,568.23 302.08,568.49 301.72,568.78 C301.11,569.27 298.77,570.07 296.29,570.65 C296.77,570.39 297.16,570.02 297.32,569.61 C297.61,568.84 299.80,567.97 302.18,567.67 C303.79,567.46 306.34,567.05 308.76,566.60 C306.93,567.09 305.21,567.60 303.89,568.05 ZM 868.05 318.96 C867.57,317.71 866.97,317.00 866.28,317.00 C865.19,317.00 864.95,316.33 865.40,314.56 C865.64,313.58 865.59,312.06 865.30,310.71 C865.52,311.21 865.75,311.73 866.00,312.24 C867.10,314.51 868.00,317.27 868.00,318.37 C868.00,318.52 868.02,318.72 868.05,318.96 ZM 521.86 601.01 C520.47,600.13 519.67,600.00 518.78,600.00 C516.77,600.00 514.84,599.55 514.50,599.00 C514.17,598.46 513.59,598.16 512.66,598.08 C515.37,597.99 517.75,598.50 520.10,599.63 C520.35,599.75 520.96,600.22 521.86,601.01 ZM 626.29 190.22 C629.39,189.23 632.89,188.22 635.87,187.48 C634.16,188.03 633.00,188.64 633.00,189.16 C633.00,189.62 631.54,190.01 629.75,190.02 C628.24,190.02 625.95,190.46 623.80,191.05 C624.39,190.84 625.01,190.64 625.66,190.43 C625.86,190.36 626.07,190.29 626.29,190.22 ZM 174.15 806.04 C175.46,808.46 176.84,810.38 177.51,810.64 C178.33,810.96 179.00,812.11 179.00,813.20 C179.00,814.66 182.79,821.01 187.03,826.78 C184.48,823.44 179.00,814.91 179.00,814.09 C179.00,813.49 178.66,812.99 178.25,812.98 C177.85,812.98 176.02,809.88 174.15,806.04 ZM 193.07 595.15 C193.02,595.28 193.00,595.38 193.00,595.47 C193.00,596.39 192.32,597.82 191.50,598.64 C190.68,599.47 190.00,599.85 190.00,599.49 C190.00,599.28 189.82,599.36 189.51,599.67 C190.67,598.15 191.85,596.64 193.07,595.15 ZM 767.42 246.00 C767.44,246.00 767.46,246.00 767.47,246.00 C767.75,246.00 768.77,246.64 769.74,247.43 C770.71,248.21 774.42,251.08 778.00,253.79 C780.57,255.74 783.90,258.60 787.23,261.65 C782.27,257.27 776.38,252.50 769.92,247.68 C769.23,247.16 768.54,246.69 767.42,246.00 ZM 726.98 558.01 C728.21,557.64 729.42,557.27 730.32,557.00 C732.15,556.45 734.60,556.00 735.76,556.00 C735.80,556.00 735.84,556.00 735.88,556.00 C735.43,556.12 734.96,556.23 734.50,556.31 C732.70,556.65 730.14,557.23 726.98,558.01 ZM 713.01 224.02 C715.57,224.18 721.21,225.36 724.83,226.46 C722.32,225.80 717.93,224.89 713.01,224.02 ZM 585.88 663.69 C598.78,676.74 608.70,687.05 609.74,688.75 C608.85,687.36 599.31,677.37 585.88,663.69 ZM 864.00 307.11 C863.60,306.10 863.22,305.13 862.98,304.50 C862.56,303.41 862.16,302.40 861.79,301.46 C862.21,302.37 862.66,303.30 863.13,304.24 C863.61,305.19 864.00,306.45 864.00,307.03 C864.00,307.06 864.00,307.08 864.00,307.11 ZM 557.17 397.26 C568.90,385.57 579.46,375.28 582.07,372.99 C579.47,375.28 568.94,385.55 557.25,397.20 L 534.00 420.39 L 534.00 420.35 ZM 783.57 535.73 C787.34,533.39 791.41,530.56 797.09,526.41 C794.36,528.46 791.41,530.59 788.14,532.87 C787.07,533.62 785.45,534.63 783.57,535.73 ZM 210.22 576.84 C217.43,570.02 224.94,563.57 230.54,559.61 C225.33,563.29 217.43,570.10 210.22,576.84 ZM 169.00 796.51 C169.00,796.06 168.63,794.92 168.08,793.55 C168.59,793.94 169.00,795.00 169.00,795.98 C169.00,797.00 169.34,797.98 169.75,798.17 C170.09,798.32 171.24,800.24 172.48,802.71 C171.16,800.16 170.05,798.30 169.75,798.17 C169.34,797.98 169.00,797.24 169.00,796.51 ZM 610.99 697.32 C611.00,697.20 611.00,697.07 611.00,696.95 C611.00,693.91 610.46,690.28 609.80,688.86 C610.77,690.91 611.14,694.11 610.99,697.32 ZM 740.80 232.21 C737.63,230.82 734.85,229.70 733.00,229.09 C735.47,229.81 738.92,231.18 740.66,232.13 C740.70,232.16 740.75,232.19 740.80,232.21 ZM 270.06 581.51 C274.89,578.84 278.84,577.00 280.09,577.00 C280.68,577.00 281.70,576.56 282.52,575.97 L 282.51 575.98 C282.16,576.54 281.20,577.00 280.36,577.00 C278.97,577.00 274.96,578.81 270.06,581.51 ZM 287.64 573.14 C290.25,572.04 293.16,571.11 294.66,571.01 C292.20,571.58 289.72,572.34 287.64,573.14 ZM 173.54 624.72 C170.67,630.12 168.05,635.58 165.77,640.83 C167.16,637.57 168.66,634.29 170.26,631.02 L 170.26 631.02 C171.30,628.94 172.39,626.84 173.54,624.72 ZM 648.82 225.52 C649.14,225.37 649.38,225.19 649.50,225.00 C649.77,224.57 651.24,224.20 653.04,224.06 C651.23,224.40 649.87,224.78 649.55,225.08 C649.39,225.24 649.13,225.39 648.82,225.52 ZM 618.49 193.19 C618.44,193.23 618.39,193.27 618.35,193.31 C617.98,193.69 617.06,194.00 616.32,194.00 C615.58,194.00 612.85,194.95 610.24,196.10 C612.85,194.95 615.44,194.00 616.00,194.00 C616.51,194.00 617.58,193.65 618.49,193.19 ZM 211.38 853.88 C211.63,854.09 211.89,854.29 212.15,854.50 C213.22,855.35 214.50,856.41 215.80,857.51 C215.45,857.23 215.11,856.97 214.80,856.74 C213.87,856.05 212.70,855.06 211.38,853.88 ZM 523.28 774.56 L 522.85 776.19 C522.13,778.45 521.47,780.22 520.93,781.24 C521.51,780.15 522.31,777.85 523.28,774.56 ZM 504.41 815.65 C503.79,816.63 503.19,817.51 502.69,818.17 C502.65,818.22 502.61,818.27 502.57,818.32 C503.76,816.63 505.03,814.64 506.22,812.63 C505.61,813.69 505.00,814.72 504.41,815.65 ZM 847.20 272.52 C844.34,267.96 840.95,263.00 837.40,258.31 C841.11,263.22 844.28,267.80 847.20,272.52 ZM 400.48 854.13 C401.49,853.72 402.48,853.31 403.45,852.90 C400.29,854.29 397.09,855.54 393.75,856.70 C396.08,855.88 398.31,855.03 400.48,854.13 ZM 432.03 882.96 C436.75,880.39 441.50,877.57 446.17,874.56 C445.81,874.80 445.44,875.05 445.06,875.29 C440.80,878.00 436.42,880.58 432.03,882.96 ZM 191.26 832.36 C191.88,833.19 192.55,834.08 193.19,834.94 C193.38,835.20 193.58,835.45 193.77,835.70 C192.91,834.67 192.24,833.80 191.80,833.16 C191.62,832.89 191.44,832.62 191.26,832.36 ZM 738.99 554.75 C739.93,554.34 741.86,553.88 743.94,553.60 C744.39,553.54 744.83,553.47 745.26,553.40 L 745.26 553.40 C744.92,553.46 744.58,553.52 744.23,553.57 C742.10,553.88 739.99,554.36 738.99,554.75 ZM 629.78 231.54 C620.72,235.34 610.19,240.37 603.78,244.25 C610.27,240.33 620.74,235.32 629.78,231.54 ZM 527.78 757.05 C527.42,758.59 527.03,760.19 526.64,761.72 C526.70,761.48 526.76,761.24 526.82,761.00 C527.30,758.96 527.74,757.12 528.12,755.45 C528.01,755.98 527.89,756.51 527.78,757.05 ZM 224.23 865.07 C225.55,866.24 226.68,867.17 227.19,867.50 C228.05,868.05 231.48,870.41 234.82,872.75 C231.48,870.41 228.03,868.05 227.16,867.50 C226.62,867.16 225.53,866.24 224.31,865.14 ZM 542.35 676.38 L 534.50 668.52 L 534.50 668.50 ZM 608.85 706.07 C609.25,705.31 609.60,704.55 609.88,703.77 C609.60,704.61 609.27,705.37 608.89,706.00 ZM 316.07 863.99 C314.97,863.77 313.79,863.52 312.54,863.24 C312.93,863.32 313.32,863.40 313.70,863.48 C314.53,863.66 315.32,863.83 316.07,863.99 ZM 539.13 328.18 L 539.13 328.22 C538.79,329.33 538.42,330.59 538.11,331.77 C538.14,331.68 538.16,331.59 538.18,331.50 C538.46,330.43 538.80,329.25 539.13,328.18 ZM 604.90 711.50 C605.31,711.04 605.70,710.60 606.06,710.16 C605.68,710.63 605.29,711.08 604.90,711.50 ZM 537.73 333.19 C537.87,332.70 537.99,332.25 538.09,331.85 C538.08,331.90 538.07,331.95 538.05,332.00 C537.95,332.38 537.85,332.78 537.73,333.19 Z" fill="rgb(189,189,188)"/>
<path d="M 317.00 904.03 C316.17,903.48 313.16,903.02 310.31,903.02 C307.45,903.01 304.87,902.60 304.57,902.11 C304.26,901.61 302.21,900.94 300.01,900.61 C297.80,900.27 294.20,899.73 291.99,899.39 C289.79,899.06 287.74,898.39 287.43,897.89 C287.13,897.40 286.09,897.00 285.13,897.00 C284.16,897.00 281.51,896.10 279.24,895.00 C276.96,893.90 274.43,893.00 273.61,893.00 C272.79,893.00 271.84,892.55 271.50,892.00 C271.16,891.45 270.12,890.99 269.19,890.98 C268.26,890.97 263.00,888.67 257.50,885.87 C252.00,883.07 246.49,880.27 245.26,879.64 C244.02,879.01 243.01,878.16 243.01,877.75 C243.00,877.34 242.53,877.00 241.95,877.00 C241.36,877.00 238.16,875.09 234.82,872.75 C231.48,870.41 228.05,868.05 227.19,867.50 C226.34,866.95 223.74,864.70 221.42,862.50 C219.10,860.30 214.93,856.70 212.15,854.50 C209.37,852.30 207.08,849.93 207.05,849.22 C206.99,847.73 198.38,838.88 197.27,839.17 C196.85,839.29 195.01,837.38 193.19,834.94 C191.36,832.50 189.34,829.81 188.69,828.97 C183.83,822.72 179.00,814.85 179.00,813.20 C179.00,812.11 178.33,810.96 177.51,810.64 C176.68,810.33 174.77,807.46 173.26,804.28 C171.74,801.10 170.16,798.35 169.75,798.17 C169.34,797.98 169.00,797.00 169.00,795.98 C169.00,794.95 168.55,793.84 168.00,793.50 C167.45,793.16 167.00,791.79 167.00,790.45 C167.00,789.12 166.26,787.16 165.35,786.10 C163.79,784.28 160.77,775.93 158.08,766.00 C157.41,763.53 156.44,760.12 155.93,758.43 C155.42,756.74 155.00,753.03 155.00,750.18 C155.00,747.33 154.55,745.00 154.00,745.00 C153.41,745.00 153.00,741.35 153.00,736.06 C153.00,731.14 152.55,726.84 152.00,726.50 C150.68,725.69 150.68,704.31 152.00,703.50 C152.55,703.16 153.00,698.89 153.00,694.00 C153.00,689.11 153.45,684.84 154.00,684.50 C154.55,684.16 155.00,681.66 155.00,678.94 C155.00,676.22 155.45,674.00 156.00,674.00 C156.55,674.00 157.00,672.45 157.00,670.55 C157.00,660.24 166.37,636.40 178.43,616.00 C183.34,607.71 190.00,598.20 190.00,599.49 C190.00,599.85 190.68,599.47 191.50,598.64 C192.32,597.82 193.00,596.39 193.00,595.47 C193.00,592.52 218.71,567.96 230.54,559.61 C242.51,551.16 256.98,543.00 259.99,543.00 C261.03,543.00 262.17,542.54 262.52,541.97 C263.84,539.83 282.52,532.73 291.75,530.86 C294.09,530.39 298.14,529.52 300.75,528.94 C308.83,527.14 317.09,525.94 327.50,525.06 C333.00,524.59 418.50,524.14 517.50,524.04 C616.50,523.95 700.65,523.50 704.50,523.03 C708.35,522.57 713.30,521.66 715.50,521.00 C717.70,520.35 721.08,519.60 723.00,519.33 C724.92,519.06 727.85,518.24 729.50,517.50 C731.15,516.76 734.96,515.19 737.96,514.01 C740.97,512.83 744.57,511.28 745.96,510.56 C747.36,509.85 750.53,508.24 753.00,506.99 C765.79,500.53 769.57,498.40 770.30,497.26 C770.74,496.57 772.54,495.26 774.30,494.35 C779.06,491.90 799.67,470.62 806.15,461.48 C817.00,446.14 825.28,429.66 828.99,416.00 C829.66,413.52 830.61,410.47 831.10,409.20 C831.60,407.94 832.00,406.03 832.00,404.95 C832.00,403.88 832.40,403.00 832.89,403.00 C834.74,403.00 836.89,354.49 835.12,352.72 C834.50,352.10 834.00,349.21 834.00,346.30 C834.00,343.39 833.64,341.00 833.19,341.00 C832.74,341.00 831.80,338.64 831.10,335.75 C827.83,322.36 823.52,311.70 815.40,297.00 C812.27,291.32 809.75,287.64 800.49,275.20 C797.12,270.66 784.87,259.00 778.00,253.79 C774.42,251.08 770.71,248.21 769.74,247.43 C768.77,246.64 767.75,246.00 767.47,246.00 C766.09,246.00 760.02,241.34 760.01,240.26 C760.01,239.58 759.21,239.12 758.25,239.23 C755.66,239.54 748.00,235.74 748.00,234.15 C748.00,233.24 747.28,232.95 745.91,233.31 C744.76,233.62 742.39,233.08 740.66,232.13 C738.92,231.18 735.47,229.81 733.00,229.09 C730.53,228.36 727.60,227.43 726.50,227.02 C723.03,225.72 715.07,224.00 712.49,224.00 C710.93,224.00 710.00,223.43 710.00,222.48 C710.00,221.18 708.64,221.06 700.66,221.62 C692.55,222.19 691.24,222.06 690.69,220.64 C689.78,218.27 678.22,218.27 677.31,220.63 C676.77,222.04 675.49,222.17 667.84,221.60 C660.27,221.02 659.00,221.15 659.00,222.46 C659.00,223.61 657.89,224.00 654.56,224.00 C652.12,224.00 649.84,224.45 649.50,225.00 C649.16,225.55 647.77,226.00 646.41,226.00 C641.47,226.00 615.80,236.99 603.78,244.25 C591.70,251.55 569.90,271.22 563.62,280.50 C562.13,282.70 559.34,286.75 557.42,289.50 C553.31,295.39 545.14,311.39 542.62,318.50 C541.64,321.25 540.48,324.40 540.04,325.50 C539.59,326.60 538.76,329.30 538.18,331.50 C537.61,333.70 536.38,338.11 535.46,341.30 C533.44,348.30 533.56,345.01 533.80,386.44 L 534.00 420.39 L 557.25 397.20 C570.04,384.45 581.44,373.36 582.59,372.56 C585.61,370.46 593.87,369.62 598.68,370.92 C603.92,372.33 607.96,376.14 610.90,382.46 C613.52,388.09 613.35,392.82 610.34,398.49 C607.93,403.03 528.84,482.48 523.05,486.16 C517.52,489.70 510.83,489.99 505.40,486.95 C501.35,484.67 420.89,404.27 417.89,399.50 C416.51,397.30 416.01,394.63 416.01,389.50 C416.01,381.43 417.67,377.88 423.53,373.41 C426.81,370.91 428.07,370.58 434.37,370.60 C438.71,370.61 442.49,371.18 444.04,372.06 C447.50,374.03 458.00,384.18 458.00,385.56 C458.00,386.92 485.74,415.13 489.50,417.59 C491.73,419.05 492.31,419.11 493.03,417.95 C493.50,417.19 493.93,403.72 493.98,388.03 C494.08,358.52 495.03,342.68 496.91,339.16 C497.51,338.05 498.00,335.53 498.00,333.58 C498.00,330.00 499.59,322.20 501.07,318.50 C501.51,317.40 502.82,313.58 503.98,310.00 C505.14,306.42 506.52,302.72 507.05,301.76 C507.57,300.81 508.00,299.52 508.00,298.90 C508.00,295.76 524.46,265.98 528.78,261.30 C530.04,259.94 532.93,256.28 535.21,253.16 C537.49,250.05 544.34,242.52 550.43,236.43 C568.33,218.54 584.95,207.33 610.24,196.10 C612.85,194.95 615.58,194.00 616.32,194.00 C617.06,194.00 617.98,193.69 618.35,193.31 C619.65,192.01 626.51,190.03 629.75,190.02 C631.54,190.01 633.00,189.62 633.00,189.16 C633.00,187.85 640.22,186.00 645.31,186.00 C647.82,186.00 650.16,185.55 650.50,185.00 C650.84,184.45 653.99,184.00 657.50,184.00 C661.01,184.00 664.16,183.55 664.50,183.00 C666.07,180.45 714.43,182.41 717.45,185.14 C717.97,185.61 720.56,186.00 723.20,186.00 C725.84,186.00 728.00,186.45 728.00,187.00 C728.00,187.55 729.73,188.00 731.85,188.00 C736.24,188.00 742.00,189.76 742.00,191.10 C742.00,191.59 743.35,192.00 745.01,192.00 C746.67,192.00 750.15,192.94 752.76,194.10 C755.37,195.25 758.40,196.56 759.50,196.99 C770.15,201.23 794.89,215.32 798.00,218.93 C798.28,219.25 800.30,220.85 802.50,222.48 C809.12,227.40 831.10,249.96 837.40,258.31 C847.19,271.26 855.83,286.27 855.21,289.25 C855.02,290.21 855.45,291.01 856.18,291.02 C857.30,291.03 859.36,295.11 862.98,304.50 C863.40,305.60 864.26,307.76 864.88,309.31 C865.50,310.85 865.73,313.21 865.40,314.56 C864.95,316.33 865.19,317.00 866.28,317.00 C868.02,317.00 869.23,321.56 869.15,327.80 C869.11,330.71 869.56,332.28 870.56,332.66 C871.72,333.10 871.90,334.30 871.39,338.11 C870.84,342.25 871.00,343.00 872.39,343.00 C873.86,343.00 873.96,344.18 873.37,354.00 C872.77,363.83 872.88,365.00 874.35,365.00 C875.73,365.00 876.00,366.16 876.00,372.00 C876.00,377.84 875.73,379.00 874.35,379.00 C872.88,379.00 872.76,380.16 873.29,389.42 C873.78,398.16 873.64,399.93 872.37,400.41 C871.15,400.88 870.99,402.07 871.54,406.50 C872.15,411.33 872.02,412.00 870.48,412.00 C869.04,412.00 868.84,412.62 869.32,415.57 C869.64,417.53 869.52,420.12 869.06,421.32 C868.60,422.52 867.21,426.88 865.98,431.00 C864.75,435.12 862.45,441.33 860.87,444.79 C859.29,448.26 858.00,451.44 858.00,451.88 C858.00,452.99 853.93,460.73 850.72,465.73 C849.22,468.06 848.00,470.23 848.00,470.55 C848.00,472.23 832.05,494.00 830.82,494.00 C829.36,494.00 824.84,498.93 825.43,499.89 C826.19,501.11 807.94,518.46 798.97,525.04 C785.67,534.80 780.88,537.78 770.50,542.70 C768.85,543.49 766.60,544.62 765.50,545.23 C758.94,548.84 753.95,551.00 752.16,551.00 C751.04,551.00 749.85,551.44 749.52,551.97 C749.19,552.51 746.68,553.24 743.94,553.60 C741.20,553.97 738.71,554.65 738.42,555.13 C738.12,555.61 736.93,556.00 735.76,556.00 C734.60,556.00 732.15,556.45 730.32,557.00 C728.49,557.55 725.39,558.49 723.42,559.10 C721.44,559.70 717.63,560.17 714.94,560.15 C712.25,560.13 709.78,560.54 709.46,561.06 C709.10,561.64 637.41,562.00 520.64,562.00 C407.55,562.00 332.02,562.37 331.45,562.92 C330.93,563.42 327.58,564.06 324.00,564.34 C320.42,564.61 315.02,565.35 312.00,565.98 C308.98,566.60 304.55,567.36 302.18,567.67 C299.80,567.97 297.61,568.84 297.32,569.61 C297.03,570.37 295.94,571.00 294.91,571.00 C292.49,571.00 284.95,573.92 282.92,575.66 C282.05,576.39 280.78,577.00 280.09,577.00 C277.61,577.00 264.60,584.18 255.14,590.77 C239.13,601.92 223.29,618.95 212.27,636.87 C208.69,642.68 201.00,658.73 201.00,660.37 C201.00,661.20 200.60,662.13 200.12,662.43 C199.64,662.73 198.99,663.99 198.69,665.24 C198.39,666.48 197.63,669.30 197.00,671.50 C195.53,676.67 194.15,682.26 192.78,688.50 C192.18,691.25 191.67,702.95 191.65,714.50 C191.61,734.86 192.79,747.95 195.19,753.76 C195.81,755.27 196.24,756.87 196.14,757.31 C196.04,757.76 196.59,759.33 197.36,760.81 C198.77,763.53 200.64,767.82 202.01,771.50 C203.11,774.43 211.36,791.41 211.98,792.00 C212.27,792.28 213.14,793.73 213.91,795.23 C214.69,796.74 216.15,798.86 217.16,799.94 C218.17,801.03 219.00,802.21 219.00,802.56 C219.00,803.16 224.12,810.03 226.49,812.60 C239.65,826.93 246.80,833.18 259.04,841.03 C272.23,849.48 284.59,855.39 296.50,858.93 C309.83,862.90 319.36,865.00 324.02,865.00 C325.59,865.00 327.16,865.45 327.50,866.00 C327.86,866.59 333.84,867.00 342.06,867.00 C350.69,867.00 356.00,866.62 356.00,866.00 C356.00,865.45 357.46,865.00 359.25,865.00 C365.15,865.00 380.12,861.41 393.50,856.79 C407.86,851.83 419.71,845.17 436.00,832.89 C448.98,823.10 470.00,799.73 470.00,795.09 C470.00,794.66 470.90,793.50 472.00,792.50 C473.10,791.50 474.00,790.33 474.00,789.89 C474.00,789.45 475.35,786.80 477.00,784.00 C478.65,781.20 480.00,778.34 480.00,777.64 C480.00,776.95 480.90,774.51 482.00,772.24 C483.10,769.96 484.00,767.43 484.00,766.61 C484.00,765.79 484.40,764.87 484.88,764.57 C485.36,764.27 486.00,763.01 486.28,761.76 C486.57,760.52 487.81,756.35 489.03,752.50 C490.25,748.65 491.69,742.80 492.23,739.50 C493.65,730.77 494.37,668.97 493.06,667.66 C492.33,666.93 485.15,673.52 469.50,689.29 C457.12,701.76 445.87,712.69 444.50,713.59 C442.74,714.75 439.48,715.26 433.26,715.36 C424.57,715.50 424.47,715.47 420.66,712.01 C418.55,710.09 416.19,707.00 415.41,705.14 C413.40,700.32 413.63,692.62 415.93,688.21 C416.99,686.17 436.90,665.53 460.18,642.33 C496.06,606.59 503.11,600.01 506.50,599.09 C511.50,597.74 513.71,597.72 514.50,599.00 C514.84,599.55 516.77,600.00 518.78,600.00 C522.27,600.00 524.42,601.99 565.51,643.14 C589.20,666.86 609.13,687.43 609.79,688.84 C610.46,690.25 611.00,693.90 611.00,696.95 C610.99,702.83 609.14,707.01 604.21,712.25 C601.75,714.87 601.17,715.00 592.37,715.00 C586.97,715.00 582.85,714.56 582.47,713.95 C582.11,713.37 581.30,713.07 580.66,713.28 C580.02,713.50 569.38,703.51 557.00,691.09 L 534.50 668.50 L 534.23 695.34 C534.01,717.47 533.71,722.44 532.48,723.66 C531.41,724.73 531.00,727.45 531.00,733.50 C531.00,742.05 530.37,746.16 526.82,761.00 C524.26,771.67 522.13,778.99 520.93,781.24 C520.42,782.19 520.00,783.73 520.00,784.66 C520.00,785.58 519.39,787.05 518.65,787.92 C517.91,788.79 516.25,792.09 514.97,795.25 C513.68,798.41 512.26,801.00 511.82,801.00 C511.37,801.00 510.99,801.56 510.97,802.25 C510.88,805.93 500.48,822.89 498.28,822.96 C497.61,822.98 496.69,824.46 496.23,826.25 C495.76,828.11 494.45,829.93 493.19,830.49 C491.97,831.04 491.19,832.06 491.46,832.77 C492.08,834.36 466.72,859.96 458.50,866.05 C440.01,879.74 418.73,890.99 402.00,895.91 C399.52,896.63 396.60,897.56 395.50,897.98 C390.07,900.01 386.08,901.00 383.38,901.00 C381.74,901.00 379.97,901.41 379.45,901.91 C377.84,903.45 368.47,904.14 343.00,904.59 C327.64,904.86 317.94,904.65 317.00,904.03 Z" fill="rgb(252,253,251)"/>
</g>
</svg>